<?xml version="1.0" encoding="UTF-8" standalone="no"?>
<svg
   xmlns:dc="http://purl.org/dc/elements/1.1/"
   xmlns:cc="http://creativecommons.org/ns#"
   xmlns:rdf="http://www.w3.org/1999/02/22-rdf-syntax-ns#"
   xmlns:svg="http://www.w3.org/2000/svg"
   xmlns="http://www.w3.org/2000/svg"
   version="1.1"
   id="svg2"
   viewBox="0 0 500 500"
   height="500"
   width="500">
  <defs
     id="defs4">
    <clipPath
       id="clipPath4479"
       clipPathUnits="userSpaceOnUse">
      <rect
         transform="matrix(0.92578221,-0.37805726,0.37805726,0.92578221,0,0)"
         y="577.69049"
         x="-23.452158"
         height="209.19325"
         width="162.28893"
         id="rect4481"
         style="opacity:1;fill:#1976d2;fill-opacity:1;stroke:#3f3f3f;stroke-width:2;stroke-miterlimit:4;stroke-dasharray:none;stroke-opacity:1" />
    </clipPath>
  </defs>
  <metadata
     id="metadata7">
    <rdf:RDF>
      <cc:Work
         rdf:about="">
        <dc:format>image/svg+xml</dc:format>
        <dc:type
           rdf:resource="http://purl.org/dc/dcmitype/StillImage" />
        <dc:title></dc:title>
      </cc:Work>
    </rdf:RDF>
  </metadata>
  <g
     transform="translate(0,-552.36216)"
     id="layer1">
    <g
       id="text4204"
       style="font-style:normal;font-weight:normal;font-size:40px;line-height:125%;font-family:sans-serif;letter-spacing:0px;word-spacing:0px;fill:#000000;fill-opacity:1;stroke:none;stroke-width:1px;stroke-linecap:butt;stroke-linejoin:miter;stroke-opacity:1">
      <path
         id="path4672"
         style="font-style:normal;font-variant:normal;font-weight:bold;font-stretch:normal;font-size:62.5px;font-family:Exo;-inkscape-font-specification:'Exo Bold'"
         d="m 183.96826,954.21222 q 6,0 8.9375,3.0625 3.5625,3.625 3.5625,11.1875 0,8.8125 -3.6875,11.6875 -1.1875,0.9375 -1.8125,1.1875 -0.625,0.25 -1.8125,0.625 l 8.6875,18 -9.875,0 -7.5625,-17.3125 -7.6875,-0.875 0,18.1875 -8.75,0 0,-45.75 20,0 z m -11.1875,20.6875 10.375,0 q 2.4375,0 3.4375,-1.25 1.0625,-1.25 1.0625,-5.0625 0,-3.8125 -1.125,-5.1875 -1.125,-1.4375 -3.375,-1.4375 l -10.375,0 0,12.9375 z" />
      <path
         id="path4674"
         style="font-style:normal;font-variant:normal;font-weight:bold;font-stretch:normal;font-size:62.5px;font-family:Exo;-inkscape-font-specification:'Exo Bold'"
         d="m 202.55713,999.96222 0,-45.75 8.75,0 0,19.625 15.6875,0 0,-19.625 8.75,0 0,45.75 -8.75,0 0,-18.125 -15.6875,0 0,18.125 -8.75,0 z" />
      <path
         id="path4676"
         style="font-style:normal;font-variant:normal;font-weight:bold;font-stretch:normal;font-size:62.5px;font-family:Exo;-inkscape-font-specification:'Exo Bold'"
         d="m 242.35205,999.96222 0,-45.75 8.75,0 0,45.75 -8.75,0 z" />
      <path
         id="path4678"
         style="font-style:normal;font-variant:normal;font-weight:bold;font-stretch:normal;font-size:62.5px;font-family:Exo;-inkscape-font-specification:'Exo Bold'"
         d="m 257.61084,999.96222 0,-45.75 8.875,0 18.125,29.5625 0,-29.5625 8.75,0 0,45.75 -8.75,0 -18.1875,-29.25 0,29.25 -8.8125,0 z" />
      <path
         id="path4680"
         style="font-style:normal;font-variant:normal;font-weight:bold;font-stretch:normal;font-size:62.5px;font-family:Exo;-inkscape-font-specification:'Exo Bold'"
         d="m 300.21924,988.64972 q -0.4375,-2.1875 -0.6875,-5 -0.25,-2.8125 -0.25,-6.75 0,-4 0.4375,-7.5 0.5,-3.5625 1.3125,-6 0.8125,-2.5 2.1875,-4.25 1.375,-1.75 2.75,-2.75 1.4375,-1 3.5,-1.5625 3.25,-0.9375 6.8125,-0.9375 3.625,0 5.25,0.125 1.6875,0.125 3.5,0.5625 1.875,0.375 3.1875,1.125 1.3125,0.75 2.625,1.9375 1.375,1.125 2.25,2.9375 0.875,1.75 1.5625,4.0625 1.375,4.625 1.375,10.8125 0,6.1875 -0.5,9.5625 -0.4375,3.3125 -1.1875,5.75 -0.75,2.375 -2.0625,4.125 -1.25,1.6875 -2.6875,2.75 -1.375,1 -3.375,1.5625 -4.625,1.37498 -12.1875,0.87498 -3.875,-0.18748 -5.625,-0.93748 -1.75,-0.75 -3.0625,-1.5625 -1.25,-0.875 -2.125,-2.0625 -0.875,-1.25 -1.6875,-2.9375 -0.8125,-1.75 -1.3125,-3.9375 z m 8.5,-20.625 q -0.3125,1.625 -0.5,3.9375 -0.1875,2.3125 -0.1875,5.8125 0,3.5 0.25,6 0.25,2.4375 0.8125,4.1875 0.625,1.75 1.8125,2.625 2.125,1.5625 6.75,1.5625 4.375,0 6.5625,-1.625 3.0625,-2.3125 3.0625,-13.125 0,-7.3125 -0.8125,-9.6875 -0.75,-2.375 -1.4375,-3.375 -0.625,-1 -1.8125,-1.5625 -1.9375,-0.8125 -4.5625,-0.8125 -2.625,0 -3.6875,0.125 -1,0.0625 -2.1875,0.375 -1.125,0.3125 -1.8125,1 -0.625,0.625 -1.3125,1.75 -0.625,1.125 -0.9375,2.8125 z" />
    </g>
    <path
       id="path4483"
       d="m 68.666899,680.93011 16.148896,140.29359 17.158205,18.16752 19.17683,-29.26988 8.07446,-46.42809 z"
       style="opacity:1;fill:#3a3a3a;fill-opacity:1;fill-rule:evenodd;stroke:none;stroke-width:1;stroke-linecap:butt;stroke-linejoin:miter;stroke-miterlimit:4;stroke-dasharray:none;stroke-opacity:1" />
    <path
       id="path4489"
       d="m 129.23178,763.67059 32.29131,16.6762 -40.36902,29.75885 z"
       style="opacity:1;fill:#212121;fill-opacity:1;fill-rule:evenodd;stroke:none;stroke-width:1px;stroke-linecap:butt;stroke-linejoin:miter;stroke-opacity:1" />
    <path
       id="path4491"
       d="m 101.974,839.13891 19.19523,-29.04516 156.52649,17.44408 -71.76315,30.52557 -81.24916,15.64425 z"
       style="opacity:1;fill:#9e9e9e;fill-opacity:1;fill-rule:evenodd;stroke:none;stroke-width:1px;stroke-linecap:butt;stroke-linejoin:miter;stroke-opacity:1" />
    <path
       id="path4493"
       d="M 161.52309,780.34142 277.71162,827.53976 121.1765,810.08186 Z"
       style="opacity:1;fill:#9e9e9e;fill-opacity:1;fill-rule:evenodd;stroke:none;stroke-width:1px;stroke-linecap:butt;stroke-linejoin:miter;stroke-opacity:1" />
    <path
       id="path4495"
       d="m 161.51009,780.34847 90.85058,-86.80203 25.34724,133.99505 z"
       style="opacity:1;fill:#f5f5f5;fill-opacity:1;fill-rule:evenodd;stroke:none;stroke-width:1px;stroke-linecap:butt;stroke-linejoin:miter;stroke-opacity:1" />
    <path
       id="path4497"
       d="m 202.4,773.28165 38.85831,-18.67217 -4.54189,34.82108 z"
       style="opacity:1;fill:#9e9e9e;fill-opacity:1;fill-rule:evenodd;stroke:none;stroke-width:1px;stroke-linecap:butt;stroke-linejoin:miter;stroke-opacity:1" />
    <path
       id="path4499"
       d="m 211.1136,769.14325 18.03303,8.68029 3.63374,-19.278 z"
       style="opacity:1;fill:#212121;fill-opacity:1;fill-rule:evenodd;stroke:none;stroke-width:1px;stroke-linecap:butt;stroke-linejoin:miter;stroke-opacity:1" />
    <path
       id="path4501"
       d="m 200.50867,743.16791 -20.66241,-20.22733 10.89917,29.44932 z"
       style="opacity:1;fill:#424242;fill-opacity:1;fill-rule:evenodd;stroke:none;stroke-width:1px;stroke-linecap:butt;stroke-linejoin:miter;stroke-opacity:1" />
    <path
       id="path4503"
       d="m 161.51121,780.34848 9.14155,-82.33918 20.10029,54.44654 z"
       style="opacity:1;fill:#e0e0e0;fill-opacity:1;fill-rule:evenodd;stroke:none;stroke-width:1px;stroke-linecap:butt;stroke-linejoin:miter;stroke-opacity:1" />
    <path
       id="path4505"
       d="m 124.72044,873.73752 80.70748,-15.67412 -52.98859,34.31642 z"
       style="opacity:1;fill:#3a3a3a;fill-opacity:1;fill-rule:evenodd;stroke:none;stroke-width:1px;stroke-linecap:butt;stroke-linejoin:miter;stroke-opacity:1" />
    <path
       id="path4507"
       d="m 277.7195,827.52399 -73.80554,31.04406 -51.46764,33.81177 65.59794,11.60702 z"
       style="opacity:1;fill:#e0e0e0;fill-opacity:1;fill-rule:evenodd;stroke:none;stroke-width:1px;stroke-linecap:butt;stroke-linejoin:miter;stroke-opacity:1" />
    <path
       id="path4509"
       d="m 238.62352,877.6222 51.58614,21.82276 -12.51381,-71.9052 z"
       style="opacity:1;fill:#3a3a3a;fill-opacity:1;fill-rule:evenodd;stroke:none;stroke-width:1px;stroke-linecap:butt;stroke-linejoin:miter;stroke-opacity:1" />
    <path
       id="path4511"
       d="m 252.36067,693.54644 112.53768,-68.12819 -23.7187,112.03302 -63.47438,90.05394 z"
       style="opacity:1;fill:#9e9e9e;fill-opacity:1;fill-rule:evenodd;stroke:none;stroke-width:1px;stroke-linecap:butt;stroke-linejoin:miter;stroke-opacity:1" />
    <path
       id="path4513"
       d="m 237.38211,707.93286 7.40876,-59.30056 9.08377,30.78384 11.60702,-42.89552 14.79727,40.12503 -27.82316,16.93757 z"
       style="opacity:1;fill:#e0e0e0;fill-opacity:1;fill-rule:evenodd;stroke:none;stroke-width:1px;stroke-linecap:butt;stroke-linejoin:miter;stroke-opacity:1" />
    <path
       id="path4515"
       d="m 294.04484,668.34707 -28.69799,-31.99614 14.90424,40.23872 z"
       style="opacity:1;fill:#111111;fill-opacity:1;fill-rule:evenodd;stroke:none;stroke-width:1px;stroke-linecap:butt;stroke-linejoin:miter;stroke-opacity:1" />
    <path
       id="path4517"
       d="m 244.75694,648.56473 14.6516,10.36237 -5.5339,20.74138 z"
       style="opacity:1;fill:#111111;fill-opacity:1;fill-rule:evenodd;stroke:none;stroke-width:1px;stroke-linecap:butt;stroke-linejoin:miter;stroke-opacity:1" />
    <path
       id="path4519"
       d="m 364.87186,625.4471 26.15682,179.79158 -49.89915,-67.57579 z"
       style="opacity:1;fill:#e0e0e0;fill-opacity:1;fill-rule:evenodd;stroke:none;stroke-width:1px;stroke-linecap:butt;stroke-linejoin:miter;stroke-opacity:1" />
    <path
       id="path4521"
       d="m 277.67678,827.54189 113.3519,-22.30937 -49.9227,-67.68783 z"
       style="opacity:1;fill:#3a3a3a;fill-opacity:1;fill-rule:evenodd;stroke:none;stroke-width:1px;stroke-linecap:butt;stroke-linejoin:miter;stroke-opacity:1" />
    <path
       id="path4523"
       d="M 290.20248,899.44505 391.02866,805.22613 277.68469,827.53001 Z"
       style="opacity:1;fill:#212121;fill-opacity:1;fill-rule:evenodd;stroke:none;stroke-width:1px;stroke-linecap:butt;stroke-linejoin:miter;stroke-opacity:1" />
    <path
       id="path4525"
       d="m 343.79453,848.92793 34.0428,55.14413 19.61428,-35.35131 z"
       style="opacity:1;fill:#212121;fill-opacity:1;fill-rule:evenodd;stroke:none;stroke-width:1px;stroke-linecap:butt;stroke-linejoin:miter;stroke-opacity:1" />
    <path
       id="path4527"
       d="m 391.02866,805.22636 6.43507,63.51818 -53.6212,-19.72151 z"
       style="opacity:1;fill:#111111;fill-opacity:1;fill-rule:evenodd;stroke:none;stroke-width:1px;stroke-linecap:butt;stroke-linejoin:miter;stroke-opacity:1" />
  </g>
</svg>
